<?xml version="1.0" encoding="UTF-8" standalone="no"?>
<!DOCTYPE svg PUBLIC "-//W3C//DTD SVG 1.1//EN"
 "http://www.w3.org/Graphics/SVG/1.1/DTD/svg11.dtd">
<!-- Generated by graphviz version 5.0.0 (20220707.1540)
 -->
<!-- Title: dependencies Pages: 1 -->
<svg width="394pt" height="174pt"
 viewBox="0.00 0.00 394.00 173.80" xmlns="http://www.w3.org/2000/svg" xmlns:xlink="http://www.w3.org/1999/xlink">
<g id="graph0" class="graph" transform="scale(1 1) rotate(0) translate(4 169.8)">
<title>dependencies</title>
<polygon fill="white" stroke="transparent" points="-4,4 -4,-169.8 390,-169.8 390,4 -4,4"/>
<text text-anchor="middle" x="193" y="-8.2" font-family="sans-serif" font-size="14.00">dependencies</text>
<g id="clust1" class="cluster">
<title>cluster_AppModule</title>
<polygon fill="none" stroke="black" stroke-dasharray="1,5" points="8,-32.8 8,-157.8 378,-157.8 378,-32.8 8,-32.8"/>
</g>
<g id="clust3" class="cluster">
<title>cluster_AppModule_imports</title>
<polygon fill="none" stroke="black" points="16,-40.8 16,-92.8 370,-92.8 370,-40.8 16,-40.8"/>
</g>
<!-- RequestModule -->
<g id="node1" class="node">
<title>RequestModule</title>
<polygon fill="#8dd3c7" stroke="black" points="362.16,-84.8 359.16,-88.8 338.16,-88.8 335.16,-84.8 257.84,-84.8 257.84,-48.8 362.16,-48.8 362.16,-84.8"/>
<text text-anchor="middle" x="310" y="-62.6" font-family="Times,serif" font-size="14.00">RequestModule</text>
</g>
<!-- AppModule -->
<g id="node4" class="node">
<title>AppModule</title>
<polygon fill="#8dd3c7" stroke="black" points="228.66,-149.8 225.66,-153.8 204.66,-153.8 201.66,-149.8 145.34,-149.8 145.34,-113.8 228.66,-113.8 228.66,-149.8"/>
<text text-anchor="middle" x="187" y="-127.6" font-family="Times,serif" font-size="14.00">AppModule</text>
</g>
<!-- RequestModule&#45;&gt;AppModule -->
<g id="edge1" class="edge">
<title>RequestModule&#45;&gt;AppModule</title>
<path fill="none" stroke="black" d="M310,-84.91C310,-104.14 310,-131.8 310,-131.8 310,-131.8 238.99,-131.8 238.99,-131.8"/>
<polygon fill="black" stroke="black" points="238.99,-128.3 228.99,-131.8 238.99,-135.3 238.99,-128.3"/>
</g>
<!-- ReserveModule -->
<g id="node2" class="node">
<title>ReserveModule</title>
<polygon fill="#8dd3c7" stroke="black" points="239.14,-84.8 236.14,-88.8 215.14,-88.8 212.14,-84.8 134.86,-84.8 134.86,-48.8 239.14,-48.8 239.14,-84.8"/>
<text text-anchor="middle" x="187" y="-62.6" font-family="Times,serif" font-size="14.00">ReserveModule</text>
</g>
<!-- ReserveModule&#45;&gt;AppModule -->
<g id="edge2" class="edge">
<title>ReserveModule&#45;&gt;AppModule</title>
<path fill="none" stroke="black" d="M187,-84.91C187,-84.91 187,-103.79 187,-103.79"/>
<polygon fill="black" stroke="black" points="183.5,-103.79 187,-113.79 190.5,-103.79 183.5,-103.79"/>
</g>
<!-- SpaceModule -->
<g id="node3" class="node">
<title>SpaceModule</title>
<polygon fill="#8dd3c7" stroke="black" points="116.48,-84.8 113.48,-88.8 92.48,-88.8 89.48,-84.8 23.52,-84.8 23.52,-48.8 116.48,-48.8 116.48,-84.8"/>
<text text-anchor="middle" x="70" y="-62.6" font-family="Times,serif" font-size="14.00">SpaceModule</text>
</g>
<!-- SpaceModule&#45;&gt;AppModule -->
<g id="edge3" class="edge">
<title>SpaceModule&#45;&gt;AppModule</title>
<path fill="none" stroke="black" d="M70,-84.91C70,-104.14 70,-131.8 70,-131.8 70,-131.8 135.09,-131.8 135.09,-131.8"/>
<polygon fill="black" stroke="black" points="135.09,-135.3 145.09,-131.8 135.09,-128.3 135.09,-135.3"/>
</g>
</g>
</svg>
