<?xml version="1.0" encoding="UTF-8" standalone="no"?>
<!DOCTYPE svg PUBLIC "-//W3C//DTD SVG 1.1//EN"
 "http://www.w3.org/Graphics/SVG/1.1/DTD/svg11.dtd">
<!-- Generated by graphviz version 5.0.0 (20220707.1540)
 -->
<!-- Title: dependencies Pages: 1 -->
<svg width="700pt" height="250pt"
 viewBox="0.00 0.00 700.00 249.80" xmlns="http://www.w3.org/2000/svg" xmlns:xlink="http://www.w3.org/1999/xlink">
<g id="graph0" class="graph" transform="scale(1 1) rotate(0) translate(4 245.8)">
<title>dependencies</title>
<polygon fill="white" stroke="transparent" points="-4,4 -4,-245.8 696,-245.8 696,4 -4,4"/>
<text text-anchor="middle" x="346" y="-8.2" font-family="sans-serif" font-size="14.00">dependencies</text>
<g id="clust1" class="cluster">
<title>cluster_AppModule</title>
<polygon fill="none" stroke="black" stroke-dasharray="1,5" points="86,-108.8 86,-233.8 456,-233.8 456,-108.8 86,-108.8"/>
</g>
<g id="clust3" class="cluster">
<title>cluster_AppModule_imports</title>
<polygon fill="none" stroke="black" points="94,-116.8 94,-168.8 448,-168.8 448,-116.8 94,-116.8"/>
</g>
<g id="clust7" class="cluster">
<title>cluster_AuthModule</title>
<polygon fill="none" stroke="black" stroke-dasharray="1,5" points="538,-32.8 538,-168.8 684,-168.8 684,-32.8 538,-32.8"/>
</g>
<g id="clust12" class="cluster">
<title>cluster_AuthModule_providers</title>
<polygon fill="none" stroke="black" points="546,-40.8 546,-92.8 676,-92.8 676,-40.8 546,-40.8"/>
</g>
<g id="clust13" class="cluster">
<title>cluster_RequestModule</title>
<polygon fill="none" stroke="black" stroke-dasharray="1,5" points="8,-32.8 8,-100.8 182,-100.8 182,-32.8 8,-32.8"/>
</g>
<g id="clust18" class="cluster">
<title>cluster_RequestModule_providers</title>
<polygon fill="none" stroke="black" points="16,-40.8 16,-92.8 174,-92.8 174,-40.8 16,-40.8"/>
</g>
<g id="clust19" class="cluster">
<title>cluster_ReserveModule</title>
<polygon fill="none" stroke="black" stroke-dasharray="1,5" points="190,-32.8 190,-100.8 364,-100.8 364,-32.8 190,-32.8"/>
</g>
<g id="clust24" class="cluster">
<title>cluster_ReserveModule_providers</title>
<polygon fill="none" stroke="black" points="198,-40.8 198,-92.8 356,-92.8 356,-40.8 198,-40.8"/>
</g>
<g id="clust25" class="cluster">
<title>cluster_SpaceModule</title>
<polygon fill="none" stroke="black" stroke-dasharray="1,5" points="372,-32.8 372,-100.8 530,-100.8 530,-32.8 372,-32.8"/>
</g>
<g id="clust30" class="cluster">
<title>cluster_SpaceModule_providers</title>
<polygon fill="none" stroke="black" points="380,-40.8 380,-92.8 522,-92.8 522,-40.8 380,-40.8"/>
</g>
<!-- RequestModule -->
<g id="node1" class="node">
<title>RequestModule</title>
<polygon fill="#8dd3c7" stroke="black" points="206.16,-160.8 203.16,-164.8 182.16,-164.8 179.16,-160.8 101.84,-160.8 101.84,-124.8 206.16,-124.8 206.16,-160.8"/>
<text text-anchor="middle" x="154" y="-138.6" font-family="Times,serif" font-size="14.00">RequestModule</text>
</g>
<!-- AppModule -->
<g id="node4" class="node">
<title>AppModule</title>
<polygon fill="#8dd3c7" stroke="black" points="318.66,-225.8 315.66,-229.8 294.66,-229.8 291.66,-225.8 235.34,-225.8 235.34,-189.8 318.66,-189.8 318.66,-225.8"/>
<text text-anchor="middle" x="277" y="-203.6" font-family="Times,serif" font-size="14.00">AppModule</text>
</g>
<!-- RequestModule&#45;&gt;AppModule -->
<g id="edge1" class="edge">
<title>RequestModule&#45;&gt;AppModule</title>
<path fill="none" stroke="black" d="M154,-160.91C154,-180.14 154,-207.8 154,-207.8 154,-207.8 225.01,-207.8 225.01,-207.8"/>
<polygon fill="black" stroke="black" points="225.01,-211.3 235.01,-207.8 225.01,-204.3 225.01,-211.3"/>
</g>
<!-- ReserveModule -->
<g id="node2" class="node">
<title>ReserveModule</title>
<polygon fill="#8dd3c7" stroke="black" points="329.14,-160.8 326.14,-164.8 305.14,-164.8 302.14,-160.8 224.86,-160.8 224.86,-124.8 329.14,-124.8 329.14,-160.8"/>
<text text-anchor="middle" x="277" y="-138.6" font-family="Times,serif" font-size="14.00">ReserveModule</text>
</g>
<!-- ReserveModule&#45;&gt;AppModule -->
<g id="edge2" class="edge">
<title>ReserveModule&#45;&gt;AppModule</title>
<path fill="none" stroke="black" d="M277,-160.91C277,-160.91 277,-179.79 277,-179.79"/>
<polygon fill="black" stroke="black" points="273.5,-179.79 277,-189.79 280.5,-179.79 273.5,-179.79"/>
</g>
<!-- SpaceModule -->
<g id="node3" class="node">
<title>SpaceModule</title>
<polygon fill="#8dd3c7" stroke="black" points="440.48,-160.8 437.48,-164.8 416.48,-164.8 413.48,-160.8 347.52,-160.8 347.52,-124.8 440.48,-124.8 440.48,-160.8"/>
<text text-anchor="middle" x="394" y="-138.6" font-family="Times,serif" font-size="14.00">SpaceModule</text>
</g>
<!-- SpaceModule&#45;&gt;AppModule -->
<g id="edge3" class="edge">
<title>SpaceModule&#45;&gt;AppModule</title>
<path fill="none" stroke="black" d="M394,-160.91C394,-180.14 394,-207.8 394,-207.8 394,-207.8 328.91,-207.8 328.91,-207.8"/>
<polygon fill="black" stroke="black" points="328.91,-204.3 318.91,-207.8 328.91,-211.3 328.91,-204.3"/>
</g>
<!-- JwtStrategy -->
<g id="node5" class="node">
<title>JwtStrategy</title>
<ellipse fill="#fdb462" stroke="black" cx="611" cy="-66.8" rx="56.77" ry="18"/>
<text text-anchor="middle" x="611" y="-62.6" font-family="Times,serif" font-size="14.00">JwtStrategy</text>
</g>
<!-- AuthModule -->
<g id="node6" class="node">
<title>AuthModule</title>
<polygon fill="#8dd3c7" stroke="black" points="654.55,-160.8 651.55,-164.8 630.55,-164.8 627.55,-160.8 567.45,-160.8 567.45,-124.8 654.55,-124.8 654.55,-160.8"/>
<text text-anchor="middle" x="611" y="-138.6" font-family="Times,serif" font-size="14.00">AuthModule</text>
</g>
<!-- JwtStrategy&#45;&gt;AuthModule -->
<g id="edge4" class="edge">
<title>JwtStrategy&#45;&gt;AuthModule</title>
<path fill="none" stroke="black" d="M611,-84.81C611,-84.81 611,-114.65 611,-114.65"/>
<polygon fill="black" stroke="black" points="607.5,-114.65 611,-124.65 614.5,-114.65 607.5,-114.65"/>
</g>
<!-- RequestService -->
<g id="node7" class="node">
<title>RequestService</title>
<ellipse fill="#fdb462" stroke="black" cx="95" cy="-66.8" rx="71.21" ry="18"/>
<text text-anchor="middle" x="95" y="-62.6" font-family="Times,serif" font-size="14.00">RequestService</text>
</g>
<!-- RequestService&#45;&gt;RequestModule -->
<g id="edge5" class="edge">
<title>RequestService&#45;&gt;RequestModule</title>
<path fill="none" stroke="black" d="M133.89,-82.18C133.89,-82.18 133.89,-114.77 133.89,-114.77"/>
<polygon fill="black" stroke="black" points="130.39,-114.77 133.89,-124.77 137.39,-114.77 130.39,-114.77"/>
</g>
<!-- ReserveService -->
<g id="node8" class="node">
<title>ReserveService</title>
<ellipse fill="#fdb462" stroke="black" cx="277" cy="-66.8" rx="71.19" ry="18"/>
<text text-anchor="middle" x="277" y="-62.6" font-family="Times,serif" font-size="14.00">ReserveService</text>
</g>
<!-- ReserveService&#45;&gt;ReserveModule -->
<g id="edge6" class="edge">
<title>ReserveService&#45;&gt;ReserveModule</title>
<path fill="none" stroke="black" d="M277,-84.81C277,-84.81 277,-114.65 277,-114.65"/>
<polygon fill="black" stroke="black" points="273.5,-114.65 277,-124.65 280.5,-114.65 273.5,-114.65"/>
</g>
<!-- SpaceService -->
<g id="node9" class="node">
<title>SpaceService</title>
<ellipse fill="#fdb462" stroke="black" cx="451" cy="-66.8" rx="63.1" ry="18"/>
<text text-anchor="middle" x="451" y="-62.6" font-family="Times,serif" font-size="14.00">SpaceService</text>
</g>
<!-- SpaceService&#45;&gt;SpaceModule -->
<g id="edge7" class="edge">
<title>SpaceService&#45;&gt;SpaceModule</title>
<path fill="none" stroke="black" d="M414.22,-81.45C414.22,-81.45 414.22,-114.7 414.22,-114.7"/>
<polygon fill="black" stroke="black" points="410.72,-114.7 414.22,-124.7 417.72,-114.7 410.72,-114.7"/>
</g>
</g>
</svg>
